<?xml version="1.0" encoding="UTF-8"?>
<svg version="1.1" xmlns="http://www.w3.org/2000/svg" width="1024" height="1024">
<path d="M0 0 C1.483297 -0.00323177 2.96659372 -0.00659709 4.44989014 -0.01008606 C7.54244725 -0.01602082 10.63497668 -0.01793215 13.72753906 -0.01733398 C16.83567186 -0.01725325 19.94365559 -0.0241204 23.05175781 -0.0378418 C47.5322667 -0.14410159 71.86502886 0.37654993 96.109375 4.16796875 C97.22248047 4.33296875 98.33558594 4.49796875 99.48242188 4.66796875 C106.72596877 5.751749 113.95088078 6.94371271 121.171875 8.16796875 C121.171875 8.82796875 121.171875 9.48796875 121.171875 10.16796875 C122.6734314 10.1205957 122.6734314 10.1205957 124.20532227 10.07226562 C128.24070274 10.16962939 131.70992295 10.78676827 135.63671875 11.69921875 C136.31489151 11.85459106 136.99306427 12.00996338 137.69178772 12.17004395 C139.83270109 12.66224132 141.97099192 13.16490491 144.109375 13.66796875 C145.57080225 14.00590659 147.03238962 14.34315281 148.49414062 14.6796875 C152.05527055 15.50113175 155.61412935 16.33197316 159.171875 17.16796875 C159.171875 17.82796875 159.171875 18.48796875 159.171875 19.16796875 C160.29207031 19.27625 161.41226563 19.38453125 162.56640625 19.49609375 C167.50111739 20.11659381 172.11712547 21.45252317 176.859375 22.91796875 C177.73932129 23.18601318 178.61926758 23.45405762 179.52587891 23.73022461 C185.46540388 25.56735374 191.27777188 27.62138713 197.05078125 29.93359375 C200.6682278 31.36427349 204.31814738 32.68114584 207.984375 33.98046875 C209.16644531 34.39941406 210.34851563 34.81835938 211.56640625 35.25 C212.42621094 35.55292969 213.28601563 35.85585938 214.171875 36.16796875 C214.171875 36.82796875 214.171875 37.48796875 214.171875 38.16796875 C214.99945312 38.26980469 215.82703125 38.37164062 216.6796875 38.4765625 C220.72464053 39.27740891 224.25577763 40.6471713 228.046875 42.23046875 C228.73523438 42.51212891 229.42359375 42.79378906 230.1328125 43.08398438 C231.81477409 43.77312141 233.49365197 44.46977673 235.171875 45.16796875 C235.171875 45.82796875 235.171875 46.48796875 235.171875 47.16796875 C235.85636719 47.26980469 236.54085937 47.37164062 237.24609375 47.4765625 C240.75457126 48.30566867 243.72943026 49.68519195 246.984375 51.23046875 C248.14582031 51.77832031 249.30726563 52.32617188 250.50390625 52.890625 C251.38433594 53.31214844 252.26476562 53.73367187 253.171875 54.16796875 C253.171875 54.82796875 253.171875 55.48796875 253.171875 56.16796875 C253.69523438 56.26722656 254.21859375 56.36648437 254.7578125 56.46875 C263.23060355 58.9228432 271.52836856 64.22231959 279.00390625 68.83203125 C280.91408365 70.00911354 282.84104244 71.13168641 284.796875 72.23046875 C288.01971872 74.08061978 291.16724875 76.01401319 294.3046875 78.00390625 C295.90033224 78.99868058 297.53302139 79.93361359 299.171875 80.85546875 C299.831875 81.28859375 300.491875 81.72171875 301.171875 82.16796875 C301.171875 82.82796875 301.171875 83.48796875 301.171875 84.16796875 C302.27982422 84.57982422 302.27982422 84.57982422 303.41015625 85 C305.98302266 86.0881005 308.06183951 87.28210955 310.359375 88.85546875 C311.13152344 89.38269531 311.90367187 89.90992187 312.69921875 90.453125 C313.51519531 91.01902344 314.33117187 91.58492188 315.171875 92.16796875 C316.47318359 93.06322266 316.47318359 93.06322266 317.80078125 93.9765625 C322.04091784 96.9149582 326.18214853 99.89434703 330.171875 103.16796875 C330.92984375 103.73773438 331.6878125 104.3075 332.46875 104.89453125 C333.29890625 105.52101563 334.1290625 106.1475 334.984375 106.79296875 C335.77457031 107.38335937 336.56476562 107.97375 337.37890625 108.58203125 C337.97058594 109.10539062 338.56226563 109.62875 339.171875 110.16796875 C339.171875 110.82796875 339.171875 111.48796875 339.171875 112.16796875 C339.873125 112.41546875 340.574375 112.66296875 341.296875 112.91796875 C346.91748543 115.36171241 350.93029246 118.82034665 355.171875 123.16796875 C356.26780097 124.0738648 357.37205437 124.9697802 358.484375 125.85546875 C359.37125 126.61859375 360.258125 127.38171875 361.171875 128.16796875 C361.171875 128.82796875 361.171875 129.48796875 361.171875 130.16796875 C362.0071875 130.50828125 362.0071875 130.50828125 362.859375 130.85546875 C365.83347088 132.54346911 367.89196365 134.63473392 370.171875 137.16796875 C370.171875 137.82796875 370.171875 138.48796875 370.171875 139.16796875 C370.76097656 139.43996094 371.35007812 139.71195313 371.95703125 139.9921875 C378.20622124 143.30965873 385.49730564 149.60311669 388.171875 156.16796875 C388.831875 156.16796875 389.491875 156.16796875 390.171875 156.16796875 C391.7578125 157.7421875 391.7578125 157.7421875 393.546875 159.85546875 C394.17078125 160.58765625 394.7946875 161.31984375 395.4375 162.07421875 C396.74407177 163.65152161 398.026525 165.24884963 399.296875 166.85546875 C401.19213166 169.27481876 401.19213166 169.27481876 403.671875 171.66796875 C406.0523621 174.04845585 408.07975119 176.53594202 410.171875 179.16796875 C410.914375 179.88984375 411.656875 180.61171875 412.421875 181.35546875 C414.171875 183.16796875 414.171875 183.16796875 414.171875 185.16796875 C414.831875 185.16796875 415.491875 185.16796875 416.171875 185.16796875 C417.19799449 186.81868271 418.19495643 188.48766881 419.171875 190.16796875 C419.59210937 190.58304688 420.01234375 190.998125 420.4453125 191.42578125 C422.99432543 193.99786217 425.15167769 196.86770577 427.359375 199.73046875 C427.82279297 200.32021484 428.28621094 200.90996094 428.76367188 201.51757812 C432.171875 205.92967024 432.171875 205.92967024 432.171875 208.16796875 C432.831875 208.16796875 433.491875 208.16796875 434.171875 208.16796875 C434.605 209.09609375 435.038125 210.02421875 435.484375 210.98046875 C436.97976257 213.80508971 437.9941358 215.00604848 440.171875 217.16796875 C444.03776975 222.27270705 447.36331919 227.41042934 450.171875 233.16796875 C450.97625 233.94140625 450.97625 233.94140625 451.796875 234.73046875 C453.6783002 236.69741328 453.81456462 238.52387192 454.171875 241.16796875 C454.831875 241.16796875 455.491875 241.16796875 456.171875 241.16796875 C458.09221098 244.49920069 460.00746267 247.8333296 461.921875 251.16796875 C462.46070313 252.10253906 462.99953125 253.03710938 463.5546875 254 C472.171875 269.0275343 472.171875 269.0275343 472.171875 272.16796875 C472.831875 272.16796875 473.491875 272.16796875 474.171875 272.16796875 C477.171875 278.79296875 477.171875 278.79296875 477.171875 282.16796875 C477.831875 282.16796875 478.491875 282.16796875 479.171875 282.16796875 C479.55859375 283.01359375 479.9453125 283.85921875 480.34375 284.73046875 C483.75405776 292.18344563 483.75405776 292.18344563 487.359375 299.54296875 C489.12194899 303.02459638 490.67911152 306.560457 492.171875 310.16796875 C492.63400391 311.27591797 492.63400391 311.27591797 493.10546875 312.40625 C495.39740831 317.99786909 497.3562963 323.65181932 499.22265625 329.3984375 C500.02068094 331.72683051 500.90177932 333.93142095 501.921875 336.16796875 C503.171875 339.16796875 503.171875 339.16796875 503.171875 343.16796875 C503.831875 343.16796875 504.491875 343.16796875 505.171875 343.16796875 C505.42582031 344.14636719 505.67976562 345.12476563 505.94140625 346.1328125 C507.98116393 353.92749413 510.11850337 361.62064016 512.91796875 369.18359375 C515.07214544 375.21082387 516.27148861 381.33705296 517.42578125 387.6171875 C518.08623179 391.12354913 518.08623179 391.12354913 519.22265625 394.2265625 C520.2451142 397.39491985 520.57579705 400.22679951 520.796875 403.54296875 C520.87164063 404.60257812 520.94640625 405.6621875 521.0234375 406.75390625 C521.07242188 407.55054688 521.12140625 408.3471875 521.171875 409.16796875 C521.831875 409.16796875 522.491875 409.16796875 523.171875 409.16796875 C523.34577759 410.47785767 523.34577759 410.47785767 523.52319336 411.81420898 C523.95406248 415.04432775 524.3886989 418.27391027 524.82592773 421.50317383 C525.01462364 422.90270912 525.20180269 424.30244978 525.38745117 425.70239258 C525.65407772 427.71097921 525.92655776 429.71878613 526.19921875 431.7265625 C526.36156006 432.93626709 526.52390137 434.14597168 526.69116211 435.39233398 C526.88011627 438.06823238 526.88011627 438.06823238 528.171875 439.16796875 C528.88065619 444.3940716 529.27232517 449.66305067 529.71484375 454.91796875 C529.81673036 456.12126831 529.81673036 456.12126831 529.92067528 457.34887695 C531.36975694 474.85865311 531.59776758 492.2882334 531.4944458 509.84783936 C531.48093958 512.95942783 531.48630164 516.0708751 531.49131966 519.18247986 C531.51438645 538.26038715 530.95458762 557.16014709 529.171875 576.16796875 C529.08837799 577.06725098 529.00488098 577.9665332 528.91885376 578.89306641 C528.30059268 585.03925107 528.30059268 585.03925107 527.171875 586.16796875 C526.80131293 588.30759303 526.48803981 590.45719223 526.19921875 592.609375 C526.02197266 593.91455078 525.84472656 595.21972656 525.66210938 596.56445312 C525.477774 597.95311298 525.2935304 599.34178502 525.109375 600.73046875 C524.92161008 602.12309899 524.73346399 603.51567789 524.54492188 604.90820312 C524.0834758 608.32763686 523.62597395 611.74755284 523.171875 615.16796875 C522.511875 615.16796875 521.851875 615.16796875 521.171875 615.16796875 C521.14609375 615.84859375 521.1203125 616.52921875 521.09375 617.23046875 C520.64282506 624.93718596 519.12784266 632.00581568 517.16015625 639.4296875 C516.04295217 643.65563338 515.08756133 647.89476589 514.171875 652.16796875 C513.511875 652.16796875 512.851875 652.16796875 512.171875 652.16796875 C512.048125 654.02421875 512.048125 654.02421875 511.921875 655.91796875 C511.37171477 660.98103753 509.84569047 665.49433281 508.16015625 670.28125 C506.9301352 673.87407828 506.02528281 677.46986823 505.171875 681.16796875 C504.511875 681.16796875 503.851875 681.16796875 503.171875 681.16796875 C503.089375 682.09609375 503.006875 683.02421875 502.921875 683.98046875 C501.70518382 692.46303403 497.69862592 700.43567804 494.171875 708.16796875 C493.429375 709.90046875 493.429375 709.90046875 492.671875 711.66796875 C491.55011423 714.28541054 490.40295917 716.88412027 489.234375 719.48046875 C487.07281661 724.32102421 485.10844966 729.23382374 483.171875 734.16796875 C482.511875 734.16796875 481.851875 734.16796875 481.171875 734.16796875 C481.0275 735.11671875 480.883125 736.06546875 480.734375 737.04296875 C480.171875 740.16796875 480.171875 740.16796875 479.171875 742.16796875 C478.511875 742.16796875 477.851875 742.16796875 477.171875 742.16796875 C476.98625 743.25078125 476.98625 743.25078125 476.796875 744.35546875 C476.1813819 747.12518769 475.28743126 749.56500415 474.171875 752.16796875 C473.511875 752.16796875 472.851875 752.16796875 472.171875 752.16796875 C471.93726563 753.14894531 471.70265625 754.12992188 471.4609375 755.140625 C470.16273293 759.684341 467.92302978 763.54744191 465.546875 767.60546875 C465.12664063 768.33701172 464.70640625 769.06855469 464.2734375 769.82226562 C463.24631619 771.60805609 462.21003419 773.38857243 461.171875 775.16796875 C460.511875 775.16796875 459.851875 775.16796875 459.171875 775.16796875 C458.98625 776.31265625 458.98625 776.31265625 458.796875 777.48046875 C458.171875 780.16796875 458.171875 780.16796875 456.171875 783.16796875 C455.511875 783.16796875 454.851875 783.16796875 454.171875 783.16796875 C454.048125 784.25078125 454.048125 784.25078125 453.921875 785.35546875 C453.01280232 788.76449131 451.444068 790.49480051 449.171875 793.16796875 C448.16367302 794.8296867 447.16469117 796.49701279 446.171875 798.16796875 C445.00303129 799.9511713 443.81541186 801.72220767 442.609375 803.48046875 C442.00996094 804.36347656 441.41054688 805.24648438 440.79296875 806.15625 C440.25800781 806.82011719 439.72304688 807.48398437 439.171875 808.16796875 C438.511875 808.16796875 437.851875 808.16796875 437.171875 808.16796875 C436.8625 809.11671875 436.553125 810.06546875 436.234375 811.04296875 C435.171875 814.16796875 435.171875 814.16796875 434.171875 816.16796875 C433.511875 816.16796875 432.851875 816.16796875 432.171875 816.16796875 C431.91921875 816.89371094 431.6665625 817.61945312 431.40625 818.3671875 C430.08211171 821.37164052 428.52020988 823.4632802 426.421875 825.98046875 C423.25975023 829.8152637 420.26882672 833.71250067 417.3984375 837.76953125 C416.99367188 838.23101563 416.58890625 838.6925 416.171875 839.16796875 C415.511875 839.16796875 414.851875 839.16796875 414.171875 839.16796875 C413.945 839.88984375 413.718125 840.61171875 413.484375 841.35546875 C411.90782414 844.73379202 409.86200925 846.60593613 407.171875 849.16796875 C406.511875 849.99296875 405.851875 850.81796875 405.171875 851.66796875 C403.00835489 854.37236889 400.61951429 856.72032946 398.171875 859.16796875 C396.83360196 860.83067162 395.49997715 862.49713056 394.171875 864.16796875 C392.046875 866.48046875 392.046875 866.48046875 390.171875 868.16796875 C389.511875 868.16796875 388.851875 868.16796875 388.171875 868.16796875 C387.945 868.72484375 387.718125 869.28171875 387.484375 869.85546875 C385.79637464 872.82956463 383.70510983 874.8880574 381.171875 877.16796875 C380.511875 877.16796875 379.851875 877.16796875 379.171875 877.16796875 C378.945 877.74546875 378.718125 878.32296875 378.484375 878.91796875 C376.82339278 881.76536684 374.85662939 883.28864068 372.171875 885.16796875 C371.511875 885.16796875 370.851875 885.16796875 370.171875 885.16796875 C369.945 885.91046875 369.718125 886.65296875 369.484375 887.41796875 C367.9129189 890.71054345 366.17191784 892.14293984 363.171875 894.16796875 C362.511875 894.16796875 361.851875 894.16796875 361.171875 894.16796875 C360.79482422 895.06708984 360.79482422 895.06708984 360.41015625 895.984375 C359.00536691 898.46159028 357.68882152 899.49757163 355.359375 901.10546875 C352.80941122 902.92818654 350.71805455 904.6217892 348.484375 906.85546875 C346.18272276 909.15712099 344.05961322 910.68507615 341.171875 912.16796875 C340.511875 912.16796875 339.851875 912.16796875 339.171875 912.16796875 C338.93726563 912.75578125 338.70265625 913.34359375 338.4609375 913.94921875 C336.86245964 916.70053821 335.16606032 917.86381693 332.546875 919.66796875 C331.56976562 920.35375 330.59265625 921.03953125 329.5859375 921.74609375 C329.04485352 922.12572266 328.50376953 922.50535156 327.94628906 922.89648438 C325.98261646 924.30358494 324.05634035 925.75336199 322.1328125 927.21484375 C321.43623535 927.74400391 320.7396582 928.27316406 320.02197266 928.81835938 C318.652548 929.8614273 317.28494259 930.90688932 315.91943359 931.95507812 C305.08373411 940.16796875 305.08373411 940.16796875 301.171875 940.16796875 C301.171875 940.82796875 301.171875 941.48796875 301.171875 942.16796875 C299.32144073 943.36617659 297.41397238 944.47691857 295.484375 945.54296875 C292.33901574 947.28655007 289.44128121 948.95053133 286.640625 951.2109375 C283.99539888 953.30786517 281.40657925 954.66373778 278.359375 956.10546875 C274.07162801 958.1889884 270.05176551 960.41898927 266.05078125 963 C257.73709239 968.16796875 257.73709239 968.16796875 253.171875 968.16796875 C253.171875 968.82796875 253.171875 969.48796875 253.171875 970.16796875 C250.73755861 971.34171048 248.29983318 972.50712638 245.859375 973.66796875 C245.16908203 974.00183594 244.47878906 974.33570313 243.76757812 974.6796875 C238.51171875 977.16796875 238.51171875 977.16796875 235.171875 977.16796875 C235.171875 977.82796875 235.171875 978.48796875 235.171875 979.16796875 C234.59332764 979.38412842 234.01478027 979.60028809 233.41870117 979.82299805 C220.6451983 984.50819236 220.6451983 984.50819236 208.171875 989.91796875 C203.3229574 992.21928043 198.35122684 993.70288049 193.20703125 995.20703125 C190.64939661 996.0167843 188.38543617 996.93078129 185.984375 998.10546875 C181.4312309 1000.24561701 176.69152797 1001.56722434 171.859375 1002.91796875 C171.06958252 1003.140896 170.27979004 1003.36382324 169.46606445 1003.59350586 C168.71284912 1003.79854736 167.95963379 1004.00358887 167.18359375 1004.21484375 C166.50772217 1004.39885742 165.83185059 1004.58287109 165.13549805 1004.77246094 C163.171875 1005.16796875 163.171875 1005.16796875 159.171875 1005.16796875 C159.171875 1005.82796875 159.171875 1006.48796875 159.171875 1007.16796875 C154.90368959 1008.15891865 150.63192498 1009.13352479 146.359375 1010.10546875 C145.16376953 1010.38326172 143.96816406 1010.66105469 142.73632812 1010.94726562 C135.54658434 1012.57328398 128.53402218 1013.73922474 121.171875 1014.16796875 C121.171875 1014.82796875 121.171875 1015.48796875 121.171875 1016.16796875 C93.54544155 1020.33072564 66.24368071 1024.32128116 38.23828125 1024.3359375 C36.74779736 1024.33916824 35.25731375 1024.3425335 33.76683044 1024.34602356 C30.66168486 1024.35195673 27.55656685 1024.35386969 24.45141602 1024.35327148 C21.32277604 1024.35319057 18.19428357 1024.36008789 15.06567383 1024.3737793 C-3.33212957 1024.4529579 -21.51823331 1024.22331885 -39.828125 1022.16796875 C-40.59953827 1022.08284027 -41.37095154 1021.99771179 -42.16574097 1021.91000366 C-46.81153472 1021.38793466 -51.44490956 1020.79289138 -56.078125 1020.16796875 C-57.34785156 1020.00296875 -58.61757813 1019.83796875 -59.92578125 1019.66796875 C-67.58888792 1018.65779609 -75.2135949 1017.49530455 -82.828125 1016.16796875 C-82.828125 1015.50796875 -82.828125 1014.84796875 -82.828125 1014.16796875 C-83.45759033 1014.13131104 -84.08705566 1014.09465332 -84.7355957 1014.05688477 C-92.6889237 1013.47633416 -100.25841976 1011.90781671 -108.015625 1010.10546875 C-109.25376953 1009.82380859 -110.49191406 1009.54214844 -111.76757812 1009.25195312 C-114.78926922 1008.56361423 -117.80932264 1007.86884784 -120.828125 1007.16796875 C-120.828125 1006.50796875 -120.828125 1005.84796875 -120.828125 1005.16796875 C-122.50841797 1005.00554687 -122.50841797 1005.00554687 -124.22265625 1004.83984375 C-129.1573403 1004.2193471 -133.77343105 1002.88353837 -138.515625 1001.41796875 C-139.39484619 1001.14992432 -140.27406738 1000.88187988 -141.17993164 1000.60571289 C-148.19386341 998.43487176 -155.02065681 995.91747863 -161.828125 993.16796875 C-164.01450172 992.33169276 -166.20202041 991.49839673 -168.390625 990.66796875 C-173.61671928 988.65938553 -178.78889772 986.54241392 -183.94921875 984.37109375 C-188.22181707 982.58553027 -192.52284851 980.87293444 -196.828125 979.16796875 C-196.828125 978.50796875 -196.828125 977.84796875 -196.828125 977.16796875 C-197.51261719 977.06613281 -198.19710938 976.96429687 -198.90234375 976.859375 C-202.41082126 976.03026883 -205.38568026 974.65074555 -208.640625 973.10546875 C-209.80207031 972.55761719 -210.96351563 972.00976562 -212.16015625 971.4453125 C-213.48080078 970.81302734 -213.48080078 970.81302734 -214.828125 970.16796875 C-214.828125 969.50796875 -214.828125 968.84796875 -214.828125 968.16796875 C-215.35148437 968.06871094 -215.87484375 967.96945312 -216.4140625 967.8671875 C-224.88685355 965.4130943 -233.18461856 960.11361791 -240.66015625 955.50390625 C-242.57033365 954.32682396 -244.49729244 953.20425109 -246.453125 952.10546875 C-249.67596872 950.25531772 -252.82349875 948.32192431 -255.9609375 946.33203125 C-257.55658224 945.33725692 -259.18927139 944.40232391 -260.828125 943.48046875 C-261.818125 942.83078125 -261.818125 942.83078125 -262.828125 942.16796875 C-262.828125 941.50796875 -262.828125 940.84796875 -262.828125 940.16796875 C-263.56675781 939.89339844 -264.30539062 939.61882813 -265.06640625 939.3359375 C-267.63927266 938.247837 -269.71808951 937.05382795 -272.015625 935.48046875 C-273.17384766 934.68962891 -273.17384766 934.68962891 -274.35546875 933.8828125 C-275.17144531 933.31691406 -275.98742187 932.75101563 -276.828125 932.16796875 C-277.69566406 931.57113281 -278.56320312 930.97429688 -279.45703125 930.359375 C-283.69716784 927.4209793 -287.83839853 924.44159047 -291.828125 921.16796875 C-292.58609375 920.59820313 -293.3440625 920.0284375 -294.125 919.44140625 C-294.95515625 918.81492187 -295.7853125 918.1884375 -296.640625 917.54296875 C-297.43082031 916.95257812 -298.22101563 916.3621875 -299.03515625 915.75390625 C-299.62683594 915.23054687 -300.21851563 914.7071875 -300.828125 914.16796875 C-300.828125 913.50796875 -300.828125 912.84796875 -300.828125 912.16796875 C-301.529375 911.92046875 -302.230625 911.67296875 -302.953125 911.41796875 C-308.57373543 908.97422509 -312.58654246 905.51559085 -316.828125 901.16796875 C-317.92405097 900.2620727 -319.02830437 899.3661573 -320.140625 898.48046875 C-321.0275 897.71734375 -321.914375 896.95421875 -322.828125 896.16796875 C-322.828125 895.50796875 -322.828125 894.84796875 -322.828125 894.16796875 C-323.385 893.94109375 -323.941875 893.71421875 -324.515625 893.48046875 C-327.48972088 891.79246839 -329.54821365 889.70120358 -331.828125 887.16796875 C-331.828125 886.50796875 -331.828125 885.84796875 -331.828125 885.16796875 C-332.41722656 884.89597656 -333.00632812 884.62398437 -333.61328125 884.34375 C-339.86247124 881.02627877 -347.15355564 874.73282081 -349.828125 868.16796875 C-350.488125 868.16796875 -351.148125 868.16796875 -351.828125 868.16796875 C-353.4140625 866.59375 -353.4140625 866.59375 -355.203125 864.48046875 C-356.13898438 863.3821875 -356.13898438 863.3821875 -357.09375 862.26171875 C-358.40032177 860.68441589 -359.682775 859.08708787 -360.953125 857.48046875 C-362.84838166 855.06111874 -362.84838166 855.06111874 -365.328125 852.66796875 C-367.7086121 850.28748165 -369.73600119 847.79999548 -371.828125 845.16796875 C-372.570625 844.44609375 -373.313125 843.72421875 -374.078125 842.98046875 C-375.828125 841.16796875 -375.828125 841.16796875 -375.828125 839.16796875 C-376.488125 839.16796875 -377.148125 839.16796875 -377.828125 839.16796875 C-378.85424449 837.51725479 -379.85120643 835.84826869 -380.828125 834.16796875 C-381.24835938 833.75289062 -381.66859375 833.3378125 -382.1015625 832.91015625 C-384.65057543 830.33807533 -386.80792769 827.46823173 -389.015625 824.60546875 C-389.47904297 824.01572266 -389.94246094 823.42597656 -390.41992188 822.81835938 C-393.828125 818.40626726 -393.828125 818.40626726 -393.828125 816.16796875 C-394.488125 816.16796875 -395.148125 816.16796875 -395.828125 816.16796875 C-398.828125 810.41796875 -398.828125 810.41796875 -398.828125 808.16796875 C-399.818125 807.83796875 -400.808125 807.50796875 -401.828125 807.16796875 C-405.89467356 802.26038401 -409.04148101 796.88058892 -411.828125 791.16796875 C-412.364375 790.65234375 -412.900625 790.13671875 -413.453125 789.60546875 C-415.3345502 787.63852422 -415.47081462 785.81206558 -415.828125 783.16796875 C-416.488125 783.16796875 -417.148125 783.16796875 -417.828125 783.16796875 C-419.74846098 779.83673681 -421.66371267 776.5026079 -423.578125 773.16796875 C-424.11695313 772.23339844 -424.65578125 771.29882812 -425.2109375 770.3359375 C-433.828125 755.3084032 -433.828125 755.3084032 -433.828125 752.16796875 C-434.488125 752.16796875 -435.148125 752.16796875 -435.828125 752.16796875 C-438.828125 745.54296875 -438.828125 745.54296875 -438.828125 742.16796875 C-439.488125 742.16796875 -440.148125 742.16796875 -440.828125 742.16796875 C-442.08477478 739.26196614 -442.828125 737.37192291 -442.828125 734.16796875 C-443.488125 734.16796875 -444.148125 734.16796875 -444.828125 734.16796875 C-445.15683594 733.29398438 -445.15683594 733.29398438 -445.4921875 732.40234375 C-447.4143736 727.43278944 -449.54397826 722.70339854 -452.015625 717.98046875 C-454.27131701 713.57703977 -455.60387973 710.1013648 -455.828125 705.16796875 C-456.488125 705.16796875 -457.148125 705.16796875 -457.828125 705.16796875 C-458.08207031 704.31074219 -458.33601563 703.45351563 -458.59765625 702.5703125 C-460.75716444 695.21773013 -460.75716444 695.21773013 -463.578125 688.10546875 C-464.828125 685.16796875 -464.828125 685.16796875 -464.828125 681.16796875 C-465.488125 681.16796875 -466.148125 681.16796875 -466.828125 681.16796875 C-467.08207031 680.18957031 -467.33601563 679.21117187 -467.59765625 678.203125 C-467.94456691 676.87871073 -468.29227682 675.55450565 -468.640625 674.23046875 C-468.82077148 673.54549316 -469.00091797 672.86051758 -469.18652344 672.15478516 C-470.188897 668.39632784 -471.27644268 664.71134621 -472.578125 661.04296875 C-473.64888153 657.98118387 -474.14568876 655.44946093 -473.828125 652.16796875 C-474.488125 652.16796875 -475.148125 652.16796875 -475.828125 652.16796875 C-475.93882324 651.62382324 -476.04952148 651.07967773 -476.16357422 650.51904297 C-476.67295119 648.02622308 -477.18799194 645.53460525 -477.703125 643.04296875 C-477.87714844 642.18703125 -478.05117188 641.33109375 -478.23046875 640.44921875 C-478.97541499 636.86244056 -479.74172882 633.42222038 -480.921875 629.94921875 C-481.93242203 626.84788476 -482.23648115 624.04262645 -482.453125 620.79296875 C-482.52789062 619.73335937 -482.60265625 618.67375 -482.6796875 617.58203125 C-482.75316406 616.38707031 -482.75316406 616.38707031 -482.828125 615.16796875 C-483.488125 615.16796875 -484.148125 615.16796875 -484.828125 615.16796875 C-484.94406006 614.29470947 -485.05999512 613.4214502 -485.17944336 612.52172852 C-485.61031248 609.29160975 -486.0449489 606.06202723 -486.48217773 602.83276367 C-486.67087364 601.43322838 -486.85805269 600.03348772 -487.04370117 598.63354492 C-487.31032772 596.62495829 -487.58280776 594.61715137 -487.85546875 592.609375 C-488.01781006 591.39967041 -488.18015137 590.18996582 -488.34741211 588.94360352 C-488.53636627 586.26770512 -488.53636627 586.26770512 -489.828125 585.16796875 C-490.53508635 579.94178413 -490.92549626 574.67280651 -491.3671875 569.41796875 C-491.43499043 568.61543671 -491.50279335 567.81290466 -491.57265091 566.98605347 C-492.95490292 550.25467388 -493.29398988 533.59478384 -493.21923828 516.81347656 C-493.20214824 512.94237773 -493.21233638 509.07189873 -493.22957993 505.20082092 C-493.29264096 488.37322978 -492.78421377 471.69023909 -491.3671875 454.91796875 C-491.26700884 453.7261348 -491.26700884 453.7261348 -491.16480637 452.51022339 C-490.03731604 439.37715979 -490.03731604 439.37715979 -488.828125 438.16796875 C-488.48145407 436.09831128 -488.19161597 434.01908466 -487.92578125 431.9375 C-487.75755859 430.65939453 -487.58933594 429.38128906 -487.41601562 428.06445312 C-487.15311193 426.02847797 -486.89212719 423.992277 -486.63305664 421.95581055 C-486.38151553 419.99072059 -486.12246706 418.02659628 -485.86328125 416.0625 C-485.7125415 414.88534424 -485.56180176 413.70818848 -485.40649414 412.49536133 C-484.837783 409.2235318 -483.92868478 406.29490356 -482.828125 403.16796875 C-482.4108841 401.0508575 -482.03479929 398.92516062 -481.703125 396.79296875 C-481.53554688 395.73335938 -481.36796875 394.67375 -481.1953125 393.58203125 C-481.07414062 392.78539062 -480.95296875 391.98875 -480.828125 391.16796875 C-480.168125 391.16796875 -479.508125 391.16796875 -478.828125 391.16796875 C-478.77914063 390.55050781 -478.73015625 389.93304688 -478.6796875 389.296875 C-477.93493215 380.86059459 -476.2642807 373.18176878 -473.4921875 365.1875 C-472.73188925 362.87529885 -472.21557817 360.57017838 -471.828125 358.16796875 C-471.168125 358.16796875 -470.508125 358.16796875 -469.828125 358.16796875 C-469.6425 356.68296875 -469.6425 356.68296875 -469.453125 355.16796875 C-468.87617773 351.07916851 -467.87848846 347.15934988 -466.828125 343.16796875 C-466.168125 343.16796875 -465.508125 343.16796875 -464.828125 343.16796875 C-464.6115625 341.55921875 -464.6115625 341.55921875 -464.390625 339.91796875 C-463.99063058 337.25133926 -463.55220576 334.75397146 -462.828125 332.16796875 C-462.168125 332.16796875 -461.508125 332.16796875 -460.828125 332.16796875 C-460.6425 330.62109375 -460.6425 330.62109375 -460.453125 329.04296875 C-459.88922686 325.54680029 -459.04130441 322.48399248 -457.828125 319.16796875 C-457.168125 319.16796875 -456.508125 319.16796875 -455.828125 319.16796875 C-455.621875 317.93046875 -455.415625 316.69296875 -455.203125 315.41796875 C-454.05409414 310.19808568 -451.81034097 305.80940176 -449.34765625 301.09375 C-447.32248832 297.19439068 -445.560965 293.20356058 -443.828125 289.16796875 C-443.37759766 288.12382813 -443.37759766 288.12382813 -442.91796875 287.05859375 C-442.21766007 285.42996892 -441.52227745 283.799227 -440.828125 282.16796875 C-440.168125 282.16796875 -439.508125 282.16796875 -438.828125 282.16796875 C-438.704375 281.44609375 -438.580625 280.72421875 -438.453125 279.98046875 C-437.8376319 277.21074981 -436.94368126 274.77093335 -435.828125 272.16796875 C-435.168125 272.16796875 -434.508125 272.16796875 -433.828125 272.16796875 C-433.59351563 271.18699219 -433.35890625 270.20601563 -433.1171875 269.1953125 C-431.81898293 264.6515965 -429.57927978 260.78849559 -427.203125 256.73046875 C-426.78289062 255.99892578 -426.36265625 255.26738281 -425.9296875 254.51367188 C-424.90256619 252.72788141 -423.86628419 250.94736507 -422.828125 249.16796875 C-422.168125 249.16796875 -421.508125 249.16796875 -420.828125 249.16796875 C-420.6425 248.02328125 -420.6425 248.02328125 -420.453125 246.85546875 C-419.828125 244.16796875 -419.828125 244.16796875 -417.828125 241.16796875 C-417.168125 241.16796875 -416.508125 241.16796875 -415.828125 241.16796875 C-415.745625 240.44609375 -415.663125 239.72421875 -415.578125 238.98046875 C-414.66905232 235.57144619 -413.100318 233.84113699 -410.828125 231.16796875 C-409.81119214 229.5115795 -408.81348918 227.84332997 -407.828125 226.16796875 C-406.6492161 224.24600591 -405.46155339 222.32938777 -404.265625 220.41796875 C-403.66621094 219.45375 -403.06679688 218.48953125 -402.44921875 217.49609375 C-400.828125 215.16796875 -400.828125 215.16796875 -398.828125 214.16796875 C-397.78004459 212.19274029 -396.7760839 210.19315366 -395.828125 208.16796875 C-395.168125 208.16796875 -394.508125 208.16796875 -393.828125 208.16796875 C-393.57546875 207.44222656 -393.3228125 206.71648437 -393.0625 205.96875 C-391.73836171 202.96429698 -390.17645988 200.8726573 -388.078125 198.35546875 C-384.91600023 194.5206738 -381.92507672 190.62343683 -379.0546875 186.56640625 C-378.64992188 186.10492188 -378.24515625 185.6434375 -377.828125 185.16796875 C-377.168125 185.16796875 -376.508125 185.16796875 -375.828125 185.16796875 C-375.60125 184.44609375 -375.374375 183.72421875 -375.140625 182.98046875 C-373.56407414 179.60214548 -371.51825925 177.73000137 -368.828125 175.16796875 C-367.48518019 173.50903693 -366.15067812 171.8432027 -364.828125 170.16796875 C-363.828125 169.16796875 -362.828125 168.16796875 -361.828125 167.16796875 C-360.83879511 166.03089893 -359.8598135 164.88475426 -358.890625 163.73046875 C-354.37596008 158.4428215 -354.37596008 158.4428215 -351.828125 156.16796875 C-351.168125 156.16796875 -350.508125 156.16796875 -349.828125 156.16796875 C-349.60125 155.61109375 -349.374375 155.05421875 -349.140625 154.48046875 C-347.45262464 151.50637287 -345.36135983 149.4478801 -342.828125 147.16796875 C-342.168125 147.16796875 -341.508125 147.16796875 -340.828125 147.16796875 C-340.60125 146.59046875 -340.374375 146.01296875 -340.140625 145.41796875 C-338.47964278 142.57057066 -336.51287939 141.04729682 -333.828125 139.16796875 C-333.168125 139.16796875 -332.508125 139.16796875 -331.828125 139.16796875 C-331.4878125 138.05421875 -331.4878125 138.05421875 -331.140625 136.91796875 C-329.5691689 133.62539405 -327.82816784 132.19299766 -324.828125 130.16796875 C-324.168125 130.16796875 -323.508125 130.16796875 -322.828125 130.16796875 C-322.45107422 129.26884766 -322.45107422 129.26884766 -322.06640625 128.3515625 C-320.66161691 125.87434722 -319.34507152 124.83836587 -317.015625 123.23046875 C-314.46566122 121.40775096 -312.37430455 119.7141483 -310.140625 117.48046875 C-307.83897276 115.17881651 -305.71586322 113.65086135 -302.828125 112.16796875 C-302.168125 112.16796875 -301.508125 112.16796875 -300.828125 112.16796875 C-300.59351563 111.58015625 -300.35890625 110.99234375 -300.1171875 110.38671875 C-298.51870964 107.63539929 -296.82231032 106.47212057 -294.203125 104.66796875 C-293.22601563 103.9821875 -292.24890625 103.29640625 -291.2421875 102.58984375 C-290.70110352 102.21021484 -290.16001953 101.83058594 -289.60253906 101.43945312 C-287.63886646 100.03235256 -285.71259035 98.58257551 -283.7890625 97.12109375 C-283.09248535 96.59193359 -282.3959082 96.06277344 -281.67822266 95.51757812 C-280.308798 94.4745102 -278.94119259 93.42904818 -277.57568359 92.38085938 C-266.73998411 84.16796875 -266.73998411 84.16796875 -262.828125 84.16796875 C-262.828125 83.50796875 -262.828125 82.84796875 -262.828125 82.16796875 C-260.97769073 80.96976091 -259.07022238 79.85901893 -257.140625 78.79296875 C-253.99526574 77.04938743 -251.09753121 75.38540617 -248.296875 73.125 C-245.65164888 71.02807233 -243.06282925 69.67219972 -240.015625 68.23046875 C-235.72787801 66.1469491 -231.70801551 63.91694823 -227.70703125 61.3359375 C-219.39334239 56.16796875 -219.39334239 56.16796875 -214.828125 56.16796875 C-214.828125 55.50796875 -214.828125 54.84796875 -214.828125 54.16796875 C-212.39380861 52.99422702 -209.95608318 51.82881112 -207.515625 50.66796875 C-206.48018555 50.16716797 -206.48018555 50.16716797 -205.42382812 49.65625 C-200.16796875 47.16796875 -200.16796875 47.16796875 -196.828125 47.16796875 C-196.828125 46.50796875 -196.828125 45.84796875 -196.828125 45.16796875 C-193.89387129 43.99301732 -190.95522987 42.82946023 -188.015625 41.66796875 C-187.18224609 41.33410156 -186.34886719 41.00023437 -185.49023438 40.65625 C-184.28657227 40.18251953 -184.28657227 40.18251953 -183.05859375 39.69921875 C-182.32020264 39.40595703 -181.58181152 39.11269531 -180.82104492 38.81054688 C-178.828125 38.16796875 -178.828125 38.16796875 -175.828125 38.16796875 C-175.828125 37.50796875 -175.828125 36.84796875 -175.828125 36.16796875 C-175.18375488 35.94657227 -174.53938477 35.72517578 -173.87548828 35.49707031 C-170.90047949 34.47326245 -167.92680249 33.4456367 -164.953125 32.41796875 C-163.93992187 32.06992187 -162.92671875 31.721875 -161.8828125 31.36328125 C-157.09170913 29.70482239 -152.34639255 28.00132494 -147.65625 26.07421875 C-143.00013631 24.18194432 -138.30085702 22.73106822 -133.453125 21.41796875 C-132.67324219 21.19753906 -131.89335937 20.97710938 -131.08984375 20.75 C-127.4343984 19.74397145 -124.68198113 19.16796875 -120.828125 19.16796875 C-120.828125 18.50796875 -120.828125 17.84796875 -120.828125 17.16796875 C-116.5436566 16.16120856 -112.25697076 15.16467932 -107.96801758 14.17724609 C-106.5116497 13.84047817 -105.05590469 13.50100399 -103.60083008 13.15869141 C-101.4998218 12.66492927 -99.39670807 12.18119453 -97.29296875 11.69921875 C-95.39985962 11.25932617 -95.39985962 11.25932617 -93.46850586 10.81054688 C-89.8405372 10.17015968 -86.50358371 10.05201062 -82.828125 10.16796875 C-82.828125 9.50796875 -82.828125 8.84796875 -82.828125 8.16796875 C-69.82347609 5.94127347 -56.818597 3.93608989 -43.703125 2.48046875 C-42.63989014 2.36147217 -41.57665527 2.24247559 -40.48120117 2.11987305 C-26.9752715 0.67299543 -13.58031894 0.00715365 0 0 Z " fill="#FEFEFE" transform="translate(492.828125,-0.16796875)"/>
<path d="M0 0 C26.26066237 -0.023385 52.52132317 -0.04100668 78.78199387 -0.05181217 C90.97592263 -0.05696323 103.16984492 -0.06398323 115.36376953 -0.07543945 C125.99492912 -0.08542267 136.62608402 -0.09186209 147.25724816 -0.09408849 C152.88366035 -0.09538942 158.51005911 -0.09843612 164.13646698 -0.10573006 C169.43872122 -0.11254769 174.74095659 -0.11460532 180.0432148 -0.11310768 C181.98291947 -0.11338143 183.92262481 -0.11535233 185.86232567 -0.11920547 C223.14614509 -0.18959811 254.15568045 9.33592602 281.1875 35.75 C298.10564671 52.83066493 307.01705174 72.73146076 312 96 C312.23074219 97.03898437 312.46148438 98.07796875 312.69921875 99.1484375 C318.35509023 129.07241003 311.67435394 163.29857446 294.81103516 188.79785156 C292.06100263 192.69400412 289.07231887 196.35463105 286 200 C285.28070312 200.88300781 284.56140625 201.76601563 283.8203125 202.67578125 C272.20482084 216.35483095 256.66785816 225.73043867 240 232 C239.06800781 232.35964844 238.13601563 232.71929687 237.17578125 233.08984375 C222.97165978 238.22503091 208.40845248 239.47295959 193.4375 239.6875 C191.78962027 239.72068766 190.14175258 239.75447758 188.49389648 239.78881836 C167.00022601 240.19820344 145.49627895 240.09007014 124 240 C122.73587912 242.78977793 122.73587912 242.78977793 123.58227539 244.7355957 C123.91735107 245.37585693 124.25242676 246.01611816 124.59765625 246.67578125 C124.98002441 247.41062744 125.36239258 248.14547363 125.75634766 248.90258789 C126.18737793 249.69785889 126.6184082 250.49312988 127.0625 251.3125 C127.5064209 252.14193115 127.9503418 252.9713623 128.40771484 253.82592773 C132.07526383 260.55393569 136.03185847 267.0860804 140.125 273.5625 C140.68582275 274.45300049 141.24664551 275.34350098 141.82446289 276.26098633 C145.31393458 281.68776007 149.0802415 286.76696415 153.16821289 291.75830078 C154.92778926 293.91163015 156.62776922 296.10036588 158.3125 298.3125 C168.73819835 311.72032378 179.99489295 325.51170882 193.0859375 336.40234375 C195.4142521 338.34577369 197.63739659 340.39040462 199.875 342.4375 C210.05238659 351.59868763 221.09512143 359.73312086 232 368 C233.01344482 368.79990356 233.01344482 368.79990356 234.04736328 369.6159668 C236.05155862 371.17863315 236.05155862 371.17863315 239 372 C239 353.85 239 335.7 239 317 C246.07900757 317.00954712 246.07900757 317.00954712 253.30102539 317.01928711 C268.88347251 317.03522034 284.46569446 317.01319224 300.04808903 316.97153378 C309.49692202 316.94720182 318.9454344 316.93589109 328.39428711 316.95532227 C336.63076278 316.97222711 344.86678999 316.96461075 353.10320657 316.92765242 C357.46376817 316.90893937 361.82357147 316.90243573 366.18412971 316.92530632 C370.29099587 316.94645865 374.39647465 316.9347534 378.5032196 316.89815521 C380.00800771 316.89047972 381.51291194 316.89467299 383.01762199 316.91181374 C391.04731356 317.18933348 391.04731356 317.18933348 398.39843559 314.49205208 C400.17196993 312.75099319 401.58461221 311.03671406 403 309 C403.87142798 307.95704792 404.74802814 306.91836423 405.6328125 305.88671875 C406.46954887 304.82501941 407.30009648 303.75841896 408.125 302.6875 C408.81106323 301.80396851 408.81106323 301.80396851 409.51098633 300.90258789 C432.4363006 273.55715212 432.4363006 273.55715212 443.25 241.0625 C443.27578125 240.04285156 443.3015625 239.02320313 443.328125 237.97265625 C442.94769436 234.52613583 442.0921204 232.74679753 440 230 C438.21509991 228.61733035 438.21509991 228.61733035 436.1875 227.75 C435.54167969 227.43546875 434.89585937 227.1209375 434.23046875 226.796875 C429.06085191 224.94993658 423.78524898 224.85398455 418.35253906 224.8581543 C417.6100441 224.85467987 416.86754913 224.85120544 416.10255432 224.84762573 C414.49681589 224.84030249 412.89106756 224.83493893 411.28531647 224.83133507 C408.7258359 224.82410637 406.16654016 224.80838787 403.6071167 224.78999329 C396.33169271 224.7378598 389.056368 224.68970577 381.78076172 224.67407227 C377.31913688 224.66386126 372.85797697 224.63420616 368.39653778 224.59275246 C366.71447047 224.58061463 365.03233694 224.57528888 363.35022736 224.57755089 C348.66215985 224.59242682 333.26274972 223.31642389 320.1875 216 C319.54748047 215.67 318.90746094 215.34 318.24804688 215 C314.49863187 213.01888495 311.22231351 210.74970753 308 208 C309.38921393 204.98028762 311.11130689 202.28653978 312.96972656 199.53564453 C325.0185362 181.5642797 331.60719075 162.25090657 335 141 C335.18433594 139.97132813 335.36867188 138.94265625 335.55859375 137.8828125 C338.7207106 110.06737759 335.07453037 80.58666389 321.2578125 55.98828125 C320 53 320 53 319.89453125 50.546875 C321.62148755 46.56816297 324.47888847 43.93251307 327.5625 40.9375 C328.22999268 40.28209229 328.89748535 39.62668457 329.58520508 38.95141602 C338.9720127 29.92568154 349.14332281 21.76573159 361.05859375 16.35546875 C364.04966366 15.02903416 364.04966366 15.02903416 366.97265625 13.30078125 C374.47816229 9.0966035 381.85676114 6.72163987 390.1875 4.6875 C391.16549561 4.44515625 392.14349121 4.2028125 393.15112305 3.953125 C413.08480273 -0.61531239 433.29515379 -0.27689256 453.61006141 -0.20278788 C457.67922768 -0.19012223 461.74839823 -0.18909774 465.81758118 -0.18673706 C473.49161644 -0.18056811 481.16559342 -0.1642207 488.83960325 -0.14403808 C497.58956684 -0.12153465 506.33953349 -0.11064967 515.0895189 -0.10064721 C533.05971208 -0.07984933 551.02985132 -0.0447645 569 0 C569.0107782 3.33919016 569.01722724 6.67837577 569.02294922 10.01757812 C569.02602585 10.954505 569.02910248 11.89143188 569.03227234 12.85675049 C569.04200024 20.44120359 568.71836061 27.93686627 568.125 35.5 C568.00705078 37.19769531 568.00705078 37.19769531 567.88671875 38.9296875 C567.46646773 44.58044731 566.84485248 50.131971 565.97433472 55.73205566 C565.79241514 56.90511513 565.61049557 58.07817459 565.42306328 59.28678131 C565.21364696 60.62982456 565.21364696 60.62982456 565 62 C564.31899483 62.00423194 563.63798965 62.00846388 562.93634796 62.01282406 C546.29871295 62.11652431 529.66111859 62.22521738 513.02355194 62.33933926 C504.97746626 62.39441164 496.93137617 62.44784819 488.88525391 62.49731445 C481.86509929 62.54047751 474.8449739 62.58683137 467.82486486 62.63687855 C464.11429659 62.66322386 460.40373314 62.68806538 456.69313049 62.70907402 C414.56298295 62.07516245 414.56298295 62.07516245 378 81 C377.4225 81.43441406 376.845 81.86882812 376.25 82.31640625 C362.81679962 92.73335562 352.09851691 111.12273714 349.3984375 127.69140625 C348.51441686 137.22032646 348.7423194 145.35172371 355 153 C362.87623931 160.87623931 371.86872046 161.37872278 382.47595215 161.41540527 C383.26837814 161.41384933 384.06080414 161.4122934 384.87724304 161.41069031 C387.39485409 161.406158 389.91178185 161.42036731 392.42932129 161.43908691 C397.78620335 161.47567462 403.14301155 161.48952302 408.5 161.5 C414.6892743 161.5121748 420.87821219 161.53425182 427.06733704 161.58000183 C429.5158608 161.59332614 431.96393144 161.58944532 434.41247559 161.58459473 C456.4786065 161.66032845 478.16590538 166.10146678 494.83203125 181.6171875 C508.50536218 196.64553321 510.67940749 214.9455262 510.140625 234.33496094 C508.64219091 262.73236816 493.60400867 288.98933796 478 312 C477.55430664 312.65822754 477.10861328 313.31645508 476.64941406 313.99462891 C467.39954521 327.56470075 457.36470009 340.4865245 446.22827148 352.56835938 C444.15894281 354.82655085 442.13003348 357.11532788 440.1015625 359.41015625 C434.58460673 365.54262144 428.79466028 371.39142029 422.96240234 377.22290039 C421.12957731 379.05791722 419.3049299 380.9008125 417.48046875 382.74414062 C411.34149174 388.91167849 405.15852805 394.7626358 398.3125 400.14892578 C396.06582432 401.94730997 393.96714048 403.83798341 391.875 405.8125 C387.69038175 409.58996621 383.1797116 412.78265574 378.5625 416 C352.31855451 434.2961534 338.89950068 456.44421872 332.75 487.875 C327.4666101 521.02079514 330.12054465 558.93393307 349.7109375 587.25683594 C361.71302778 603.48693529 378.67768163 611.70615147 398 616 C407.57 616.33 417.14 616.66 427 617 C427 637.13 427 657.26 427 678 C383.41046565 678.81666575 339.84498484 679.09090955 296.25 679.0625 C295.57992306 679.06207577 294.90984612 679.06165154 294.21946383 679.06121445 C276.81296278 679.05000974 259.40647975 679.02939878 242 679 C245.49109049 675.42985901 248.87609466 672.60368551 253.0625 669.875 C260.01413183 665.21172558 265.98909556 659.80273459 272 654 C272.71800781 653.33355469 273.43601562 652.66710937 274.17578125 651.98046875 C299.06786475 628.28559969 312.04543912 593.78602232 318.25 560.6875 C318.41346924 559.81673828 318.57693848 558.94597656 318.74536133 558.04882812 C321.12570299 544.53102652 321.18640302 530.98293799 321.18530273 517.29980469 C321.18748556 514.27003847 321.20569216 511.24063951 321.22460938 508.2109375 C321.25843616 496.65174213 320.73223977 485.43168961 319 474 C318.85925049 473.05995117 318.71850098 472.11990234 318.57348633 471.15136719 C315.54135171 452.48577731 310.1141633 430.22763523 299.234375 414.4375 C297.54134634 411.09430417 297.89012674 409.55694321 299 406 C300.44906961 403.56511111 301.87904453 401.38067517 303.5625 399.125 C304.00924072 398.51293701 304.45598145 397.90087402 304.91625977 397.27026367 C308.53986565 392.40162727 312.52586155 388.10215465 317 384 C317.99 383.01 318.98 382.02 320 381 C296.9 381 273.8 381 250 381 C251.70626623 384.41253246 252.4360338 385.61569026 255.0625 388 C267.59708143 400.22251716 276.11882895 416.07500414 283 432 C283.26554687 432.61101562 283.53109375 433.22203125 283.8046875 433.8515625 C291.05894832 450.73028817 295.12479184 467.8889473 298 486 C298.17950195 487.07644775 298.35900391 488.15289551 298.54394531 489.26196289 C299.90076106 497.8925489 300.38694162 506.33045912 300.375 515.0625 C300.37418427 516.08789383 300.37418427 516.08789383 300.37335205 517.13400269 C300.26574395 546.97545095 294.57115589 575.91451271 282 603 C281.50757813 604.10601563 281.01515625 605.21203125 280.5078125 606.3515625 C274.76912123 618.63949466 266.33870648 629.24874022 257 639 C256.195625 639.845625 255.39125 640.69125 254.5625 641.5625 C253.716875 642.366875 252.87125 643.17125 252 644 C250.97712891 644.99773437 250.97712891 644.99773437 249.93359375 646.015625 C225.1404441 669.41590107 191.51098435 677.65431285 158.4375 678.75 C157.73662262 678.77341461 157.03574524 678.79682922 156.31362915 678.82095337 C144.38766242 679.19383121 144.38766242 679.19383121 142 678 C142 657.54 142 637.08 142 616 C157.125 615.75 157.125 615.75 161.80126953 615.70214844 C174.03731649 615.40587611 185.28742829 612.97511177 196.25 607.3125 C197.25148071 606.80203125 197.25148071 606.80203125 198.27319336 606.28125 C204.35542236 603.04641287 209.24890267 598.9895353 214 594 C214.63164062 593.36449219 215.26328125 592.72898437 215.9140625 592.07421875 C236.59861646 570.06840473 238.93764341 536.28503156 238.10498047 507.56591797 C237.00470587 480.67315971 229.59749806 450.08475661 210.421875 430.21484375 C206.42920471 426.56348238 202.14541822 423.38748839 197.7421875 420.25097656 C184.87630948 411.0126415 172.44085052 401.30772194 160.80078125 390.5546875 C159.32479428 389.20838976 157.84390908 387.86655239 156.32543945 386.56835938 C150.34511189 381.45545499 144.76921174 375.95534215 139.2097168 370.39501953 C137.57424118 368.76172552 135.93092292 367.1366153 134.28710938 365.51171875 C128.44435368 359.69934248 122.97751587 353.79186784 117.85668945 347.32421875 C116.17970752 345.22495932 114.44110539 343.22875879 112.625 341.25 C89.14511918 314.58549167 69.83057794 280.89613648 56.02514648 248.3371582 C54.80460965 245.55454351 53.49871552 242.81693231 52.19921875 240.0703125 C48.4658338 232.00943629 45.31172108 223.74995128 42.1875 215.4375 C41.88319061 214.63108063 41.57888123 213.82466125 41.26535034 212.99380493 C36.05761072 199.16557173 31.2538431 185.25662415 26.94970703 171.1171875 C26.05395017 168.1770786 25.13579247 165.24479254 24.21484375 162.3125 C9.33337986 114.05602089 -0.11386853 62.07098368 -0.015625 11.50390625 C-0.01449707 10.39503052 -0.01336914 9.28615479 -0.01220703 8.14367676 C-0.00928264 5.42911426 -0.00518468 2.71455896 0 0 Z " fill="#282C6F" transform="translate(227,193)"/>
<path d="M0 0 C4.06916627 0.01266565 8.13833683 0.01369014 12.20751977 0.01605082 C19.88155504 0.02221977 27.55553202 0.03856718 35.22954184 0.05874979 C43.97950543 0.08125323 52.72947208 0.09213821 61.4794575 0.10214067 C79.44965067 0.12293854 97.41978991 0.15802338 115.38993859 0.20278788 C115.4007168 3.54197804 115.40716583 6.88116365 115.41288781 10.220366 C115.41596444 11.15729288 115.41904107 12.09421976 115.42221093 13.05953836 C115.43193884 20.64399147 115.1082992 28.13965415 114.51493859 35.70278788 C114.43630578 36.83458475 114.35767297 37.96638163 114.27665734 39.13247538 C113.85640633 44.78323519 113.23479108 50.33475887 112.36427331 55.93484354 C112.18235373 57.107903 112.00043416 58.28096247 111.81300187 59.48956919 C111.60358555 60.83261244 111.60358555 60.83261244 111.38993859 62.20278788 C110.36843083 62.20913579 110.36843083 62.20913579 109.32628655 62.21561193 C92.68865154 62.31931219 76.05105718 62.42800526 59.41349053 62.54212713 C51.36740485 62.59719951 43.32131476 62.65063607 35.2751925 62.70010233 C28.25503788 62.74326539 21.23491249 62.78961924 14.21480346 62.83966643 C10.50423518 62.86601174 6.79367173 62.89085325 3.08306909 62.9118619 C-39.04707846 62.27795032 -39.04707846 62.27795032 -75.61006141 81.20278788 C-76.18756141 81.63720194 -76.76506141 82.071616 -77.36006141 82.51919413 C-90.79326178 92.93614349 -101.5115445 111.32552502 -104.21162391 127.89419413 C-105.09564455 137.42311433 -104.86774201 145.55451158 -98.61006141 153.20278788 C-90.7338221 161.07902718 -81.74134095 161.58151066 -71.13410926 161.61819315 C-70.34168326 161.61663721 -69.54925727 161.61508127 -68.73281837 161.61347818 C-66.21520732 161.60894588 -63.69827956 161.62315519 -61.18074012 161.64187479 C-55.82385806 161.6784625 -50.46704985 161.6923109 -45.11006141 161.70278788 C-38.92078711 161.71496267 -32.73184922 161.73703969 -26.54272437 161.78278971 C-24.0942006 161.79611402 -21.64612996 161.79223319 -19.19758582 161.7873826 C2.86854509 161.86311632 24.55584398 166.30425466 41.22196984 181.81997538 C54.89530077 196.84832108 57.06934608 215.14831408 56.53056359 234.53774881 C55.0321295 262.93515604 39.99394727 289.19212584 24.38993859 312.20278788 C23.94424523 312.86101542 23.49855187 313.51924295 23.03935266 314.19741678 C13.7894838 327.76748863 3.75463868 340.68931238 -7.38178992 352.77114725 C-9.4511186 355.02933872 -11.48002792 357.31811576 -13.50849891 359.61294413 C-19.02545468 365.74540932 -24.81540112 371.59420817 -30.64765906 377.42568827 C-32.4804841 379.2607051 -34.30513151 381.10360038 -36.12959266 382.9469285 C-42.26856967 389.11446637 -48.45153336 394.96542368 -55.29756141 400.35171366 C-57.54423709 402.15009784 -59.64292092 404.04077128 -61.73506141 406.01528788 C-65.91967966 409.79275408 -70.43034981 412.98544361 -75.04756141 416.20278788 C-101.29150689 434.49894128 -114.71056072 456.6470066 -120.86006141 488.07778788 C-126.14345131 521.22358302 -123.48951675 559.13672095 -103.89912391 587.45962381 C-91.89703363 603.68972317 -74.93237978 611.90893935 -55.61006141 616.20278788 C-46.04006141 616.53278788 -36.47006141 616.86278788 -26.61006141 617.20278788 C-26.61006141 637.33278788 -26.61006141 657.46278788 -26.61006141 678.20278788 C-70.19959576 679.01945363 -113.76507657 679.29369743 -157.36006141 679.26528788 C-158.03013834 679.26486364 -158.70021528 679.26443941 -159.39059758 679.26400232 C-176.79709863 679.25279762 -194.20358166 679.23218666 -211.61006141 679.20278788 C-208.11897091 675.63264689 -204.73396675 672.80647339 -200.54756141 670.07778788 C-193.59592957 665.41451345 -187.62096584 660.00552246 -181.61006141 654.20278788 C-180.89205359 653.53634256 -180.17404578 652.86989725 -179.43428016 652.18325663 C-154.54219666 628.48838757 -141.56462229 593.9888102 -135.36006141 560.89028788 C-135.19659217 560.01952616 -135.03312293 559.14876444 -134.86470008 558.251616 C-132.48435842 544.7338144 -132.42365839 531.18572587 -132.42475867 517.50259256 C-132.42257584 514.47282635 -132.40436924 511.44342739 -132.38545203 508.41372538 C-132.35162525 496.85453001 -132.87782163 485.63447749 -134.61006141 474.20278788 C-134.75081092 473.26273905 -134.89156043 472.32269022 -135.03657508 471.35415506 C-138.06870969 452.68856519 -143.49589811 430.43042311 -154.37568641 414.64028788 C-156.06871506 411.29709205 -155.71993467 409.75973109 -154.61006141 406.20278788 C-153.1609918 403.76789899 -151.73101688 401.58346305 -150.04756141 399.32778788 C-149.60082068 398.71572489 -149.15407996 398.1036619 -148.69380164 397.47305155 C-145.07019576 392.60441515 -141.08419985 388.30494253 -136.61006141 384.20278788 C-135.60732086 383.20553595 -134.60691458 382.20592483 -133.61006141 381.20278788 C-134.49289298 381.20944971 -135.37572455 381.21611155 -136.2853086 381.22297525 C-144.5989664 381.28304837 -152.91255147 381.32874291 -161.2263763 381.35822439 C-165.50076839 381.37389059 -169.77498138 381.39514608 -174.04927039 381.42910624 C-178.17303394 381.46166596 -182.29662504 381.4796337 -186.42050719 381.48741961 C-187.99501932 381.49296924 -189.56952186 381.50380619 -191.14396071 381.51997805 C-193.34681813 381.54170792 -195.54896003 381.54475676 -197.75190711 381.54336405 C-199.63387542 381.5533568 -199.63387542 381.5533568 -201.55386329 381.56355143 C-204.61006141 381.20278788 -204.61006141 381.20278788 -206.53869605 379.80650187 C-207.61006141 378.20278788 -207.61006141 378.20278788 -207.61006141 376.20278788 C-208.57943641 375.89341288 -209.54881141 375.58403788 -210.54756141 375.26528788 C-213.61006141 374.20278788 -213.61006141 374.20278788 -214.61006141 373.20278788 C-214.70371147 371.45350068 -214.72750579 369.70042534 -214.7235868 367.94863749 C-214.72351127 366.82755091 -214.72343574 365.70646433 -214.72335792 364.55140543 C-214.71819663 363.33163507 -214.71303535 362.11186472 -214.70771766 360.85513163 C-214.70630271 359.61356806 -214.70488776 358.37200449 -214.70342994 357.09281778 C-214.69876732 353.78673297 -214.68977637 350.48071641 -214.67872596 347.17465067 C-214.66850968 343.80317638 -214.66393185 340.43169505 -214.65888953 337.06020975 C-214.64783536 330.44105013 -214.63107877 323.82192295 -214.61006141 317.20278788 C-213.80737799 317.20408669 -213.00469457 317.20538551 -212.17768741 317.20672369 C-192.63897913 317.23593592 -173.10063738 317.22655693 -153.56197238 317.17432165 C-144.11313939 317.14998969 -134.664627 317.13867897 -125.2157743 317.15811014 C-116.97929863 317.17501498 -108.74327142 317.16739863 -100.50685483 317.13044029 C-96.14629323 317.11172725 -91.78648994 317.1052236 -87.42593169 317.1280942 C-83.31906554 317.14924652 -79.21358676 317.13754127 -75.1068418 317.10094309 C-73.60205369 317.09326759 -72.09714947 317.09746086 -70.59243941 317.11460161 C-62.56274785 317.39212136 -62.56274785 317.39212136 -55.21162581 314.69483995 C-53.43809147 312.95378107 -52.0254492 311.23950194 -50.61006141 309.20278788 C-49.73863343 308.1598358 -48.86203326 307.12115211 -47.97724891 306.08950663 C-47.14051254 305.02780728 -46.30996493 303.96120684 -45.48506141 302.89028788 C-45.02768592 302.30126688 -44.57031043 301.71224588 -44.09907508 301.10537577 C-21.17376081 273.75993999 -21.17376081 273.75993999 -10.36006141 241.26528788 C-10.33428016 240.24563944 -10.30849891 239.225991 -10.28193641 238.17544413 C-10.66236704 234.72892371 -11.51794101 232.94958541 -13.61006141 230.20278788 C-15.39496149 228.82011823 -15.39496149 228.82011823 -17.42256141 227.95278788 C-18.06838172 227.63825663 -18.71420203 227.32372538 -19.37959266 226.99966288 C-24.5492095 225.15272446 -29.82481243 225.05677242 -35.25752234 225.06094217 C-36.00001731 225.05746775 -36.74251227 225.05399332 -37.50750709 225.05041361 C-39.11324552 225.04309036 -40.71899385 225.03772681 -42.32474494 225.03412294 C-44.88422551 225.02689425 -47.44352125 225.01117575 -50.00294471 224.99278116 C-57.2783687 224.94064767 -64.55369341 224.89249365 -71.82929969 224.87686014 C-76.29092453 224.86664913 -80.75208443 224.83699404 -85.21352363 224.79554033 C-86.89559094 224.78340251 -88.57772446 224.77807676 -90.25983405 224.78033876 C-104.94790155 224.7952147 -120.34731169 223.51921176 -133.42256141 216.20278788 C-134.06258094 215.87278788 -134.70260047 215.54278788 -135.36201453 215.20278788 C-139.11142954 213.22167283 -142.3877479 210.95249541 -145.61006141 208.20278788 C-144.22084748 205.1830755 -142.49875452 202.48932765 -140.64033484 199.73843241 C-128.59152521 181.76706757 -122.00287065 162.45369444 -118.61006141 141.20278788 C-118.42572547 140.174116 -118.24138953 139.14544413 -118.05146766 138.08560038 C-114.88935081 110.27016547 -118.53553104 80.78945177 -132.35224891 56.19106913 C-133.61006141 53.20278788 -133.61006141 53.20278788 -133.71553016 50.74966288 C-131.98857386 46.77095084 -129.13117294 44.13530095 -126.04756141 41.14028788 C-125.04632239 40.1571763 -125.04632239 40.1571763 -124.02485633 39.15420389 C-114.63804871 30.12846942 -104.4667386 21.96851946 -92.55146766 16.55825663 C-89.56039774 15.23182203 -89.56039774 15.23182203 -86.63740516 13.50356913 C-79.13189911 9.29939138 -71.75330026 6.92442774 -63.42256141 4.89028788 C-62.4445658 4.64794413 -61.4665702 4.40560038 -60.45893836 4.15591288 C-40.52525868 -0.41252452 -20.31490762 -0.07410468 0 0 Z " fill="#379F98" transform="translate(680.6100614070892,192.79721212387085)"/>
<path d="M0 0 C5.03213866 0.00580301 10.06422518 0.00232834 15.09636211 -0.00357246 C19.04710786 -0.00719581 22.99784129 -0.00603313 26.94858742 -0.00344467 C28.80590636 -0.00278577 30.66322649 -0.00356677 32.52054405 -0.00592422 C53.96577828 -0.02727281 73.30653465 0.77418059 90.01489258 16.19287109 C102.94574913 30.01713228 106.00226523 45.52992991 105.54614258 63.90380859 C104.94149155 78.06775898 99.59030652 90.62944059 89.73364258 100.88037109 C76.98798708 112.49666471 61.52000138 116.24935373 44.71142578 116.32324219 C43.67319672 116.33141968 42.63496765 116.33959717 41.5652771 116.34802246 C38.14874841 116.3727263 34.73226057 116.38934577 31.31567383 116.40380859 C30.14660177 116.40913227 28.97752972 116.41445595 27.77303123 116.41994095 C21.59576449 116.44659553 15.4185175 116.46600274 9.24121094 116.48046875 C4.12644755 116.49385391 -0.98792122 116.52180185 -6.10253906 116.5625 C-12.28331478 116.61167391 -18.46373038 116.63656936 -24.64469337 116.64369583 C-26.99989574 116.65042467 -29.35508955 116.66568873 -31.71018028 116.68958664 C-34.9971605 116.72106278 -38.28273406 116.72130209 -41.56982422 116.71386719 C-42.54497482 116.73027252 -43.52012543 116.74667786 -44.52482605 116.76358032 C-51.12494023 116.70228401 -51.12494023 116.70228401 -54.31082153 113.71614075 C-55.50196512 111.55363744 -56.55313544 109.5770614 -57.34057617 107.24365234 C-57.59709961 106.48866455 -57.85362305 105.73367676 -58.11791992 104.95581055 C-58.3834668 104.12654053 -58.64901367 103.29727051 -58.92260742 102.44287109 C-59.21522461 101.54205811 -59.5078418 100.64124512 -59.80932617 99.71313477 C-82.25098476 28.91087075 -82.25098476 28.91087075 -80.73510742 2.13037109 C-78.8284499 0.22371358 -75.34850562 0.87904108 -72.74755859 0.81835938 C-72.01117723 0.79786907 -71.27479588 0.77737877 -70.51609993 0.75626755 C-68.04103945 0.69001163 -65.5658763 0.63224225 -63.09057617 0.57568359 C-62.23052664 0.55474766 -61.3704771 0.53381172 -60.48436546 0.51224136 C-40.32421119 0.02770777 -20.16502628 -0.02346113 0 0 Z " fill="#FDFDFE" transform="translate(373.735107421875,254.86962890625)"/>
<path d="M0 0 C0 10.01526259 -15.28793154 22.24087955 -22 29 C-26.84264822 33.65377738 -31.53395513 37.84465171 -38 40 C-38 39.34 -38 38.68 -38 38 C-36.15476276 36.51645378 -34.29576849 35.12971465 -32.375 33.75 C-19.65639622 24.25766445 -9.44276658 12.68028656 0 0 Z " fill="#228C83" transform="translate(518,825)"/>
<path d="M0 0 C0 0.66 0 1.32 0 2 C0.58450928 1.96970703 1.16901855 1.93941406 1.77124023 1.90820312 C20.52509921 0.96987861 39.2287781 0.88684694 58 1 C56 3 56 3 53.4057312 3.24050903 C51.76025803 3.2338472 51.76025803 3.2338472 50.08154297 3.22705078 C48.84040741 3.22689972 47.59927185 3.22674866 46.32052612 3.22659302 C44.9610783 3.216379 43.6016321 3.205947 42.2421875 3.1953125 C40.85499271 3.19158284 39.46779529 3.18873565 38.08059692 3.18673706 C34.42759949 3.17909684 30.77476083 3.15944516 27.12182617 3.1373291 C23.39504138 3.11687896 19.66823096 3.10773713 15.94140625 3.09765625 C8.62753175 3.07619951 1.31378811 3.04205903 -6 3 C-3.375 0 -3.375 0 0 0 Z " fill="#2E8B89" transform="translate(475,869)"/>
<path d="M0 0 C0 5.97777252 -5.76502185 11.51020249 -9.64453125 15.83203125 C-10.73221984 16.91971984 -11.86019612 17.96705273 -13 19 C-13.66 18.67 -14.32 18.34 -15 18 C-14.41992188 17.3709375 -13.83984375 16.741875 -13.2421875 16.09375 C-8.52298491 10.92287456 -4.06245589 5.70336945 0 0 Z " fill="#2C8F88" transform="translate(518,825)"/>
</svg>
